<svg width="18" height="12" viewBox="0 0 18 12" fill="none" xmlns="http://www.w3.org/2000/svg">
<path d="M2.66675 7.33362C3.21899 7.33367 3.66675 7.78136 3.66675 8.33362V10.3336C3.66657 10.8857 3.21888 11.3336 2.66675 11.3336H1.66675C1.11457 11.3336 0.666924 10.8858 0.666748 10.3336V8.33362C0.666748 7.78133 1.11446 7.33362 1.66675 7.33362H2.66675ZM7.33374 5.33362C7.88583 5.33384 8.33374 5.78147 8.33374 6.33362V10.3336C8.33356 10.8856 7.88573 11.3334 7.33374 11.3336H6.33374C5.78156 11.3336 5.33392 10.8858 5.33374 10.3336V6.33362C5.33374 5.78133 5.78146 5.33362 6.33374 5.33362H7.33374ZM11.9998 2.99963C12.5519 2.99963 12.9996 3.4475 12.9998 3.99963V10.3336C12.9996 10.8858 12.5519 11.3336 11.9998 11.3336H10.9998C10.4477 11.3335 9.99993 10.8857 9.99976 10.3336V3.99963C9.99993 3.44758 10.4477 2.99976 10.9998 2.99963H11.9998ZM16.6667 0.666626C17.219 0.666675 17.6667 1.11437 17.6667 1.66663V10.3336C17.6666 10.8857 17.2189 11.3336 16.6667 11.3336H15.6667C15.1146 11.3336 14.6669 10.8858 14.6667 10.3336V1.66663C14.6667 1.11434 15.1145 0.666626 15.6667 0.666626H16.6667Z" fill="black"/>
</svg>
