<svg width="21" height="25" viewBox="0 0 21 25" fill="none" xmlns="http://www.w3.org/2000/svg">
<path d="M17.3247 10.2223L15.8502 9.60734L17.6071 8.67311C18.1431 8.39243 18.6182 8.00843 19.005 7.54326C19.3919 7.07808 19.6828 6.54093 19.8611 5.96277C20.0394 5.38462 20.1014 4.77689 20.0437 4.17464C19.9859 3.57239 19.8096 2.98752 19.5247 2.45376C18.9525 1.3732 17.9746 0.564147 16.806 0.204542C15.6374 -0.155063 14.3738 -0.035771 13.2931 0.536182L2.85689 6.06688C2.08159 6.47425 1.43855 7.09429 1.0032 7.85424C0.56786 8.61418 0.358273 9.48253 0.399034 10.3574C0.44072 11.2102 0.717647 12.0348 1.19914 12.7399C1.68064 13.4449 2.3479 14.003 3.12703 14.3522C3.16387 14.3645 4.60257 14.9661 4.60257 14.9661L2.85689 15.8881C2.12433 16.2832 1.51227 16.8691 1.08553 17.5837C0.658783 18.2983 0.433246 19.115 0.432801 19.9473C0.439255 21.1684 0.927245 22.3376 1.79076 23.2009C2.65428 24.0642 3.82357 24.5519 5.04461 24.5581C5.78647 24.5581 6.51503 24.3801 7.17299 24.0383L17.6204 18.5066C18.3941 18.0986 19.0352 17.4782 19.4684 16.7183C19.9016 15.9585 20.109 15.0907 20.066 14.2171C20.0221 13.3633 19.7429 12.5383 19.2592 11.8333C18.7756 11.1282 18.1054 10.5707 17.3247 10.2223ZM7.77364 15.5432V9.0292L13.9203 12.2873L7.77364 15.5432Z" fill="black"/>
</svg>
