<svg width="55" height="33" viewBox="0 0 55 33" fill="none" xmlns="http://www.w3.org/2000/svg">
<path fill-rule="evenodd" clip-rule="evenodd" d="M55 16.5C55 12.2455 53.3099 8.1652 50.3015 5.15681C47.2931 2.14841 43.2128 0.458313 38.9583 0.458313H16.0417C11.7872 0.458313 7.70689 2.14841 4.6985 5.15681C1.6901 8.1652 0 12.2455 0 16.5C0 20.7545 1.6901 24.8348 4.6985 27.8432C7.70689 30.8515 11.7872 32.5416 16.0417 32.5416H38.9583C43.2128 32.5416 47.2931 30.8515 50.3015 27.8432C53.3099 24.8348 55 20.7545 55 16.5ZM38.9583 5.04165H16.0417C13.0027 5.04165 10.0883 6.24886 7.9394 8.39771C5.79055 10.5466 4.58333 13.461 4.58333 16.5C4.58333 19.5389 5.79055 22.4534 7.9394 24.6022C10.0883 26.7511 13.0027 27.9583 16.0417 27.9583H38.9583C41.9973 27.9583 44.9117 26.7511 47.0606 24.6022C49.2095 22.4534 50.4167 19.5389 50.4167 16.5C50.4167 13.461 49.2095 10.5466 47.0606 8.39771C44.9117 6.24886 41.9973 5.04165 38.9583 5.04165Z" fill="black"/>
</svg>
