<svg width="18" height="21" viewBox="0 0 18 21" fill="none" xmlns="http://www.w3.org/2000/svg">
<path d="M10.4169 1.24527C11.2651 0.762289 12.2699 0.634552 13.2119 0.889961C14.1539 1.14537 14.9566 1.76317 15.4446 2.60843C15.9326 3.45369 16.0664 4.45772 15.8166 5.40124C15.5668 6.34477 14.9537 7.1511 14.1114 7.64415L13.3576 8.07807C14.1815 8.04956 14.9912 8.29748 15.6578 8.78235C16.3245 9.26722 16.8098 9.96118 17.0365 10.7537C17.2631 11.5463 17.2181 12.3919 16.9086 13.156C16.5992 13.92 16.043 14.5585 15.3286 14.9699L8.17803 19.0983C7.32975 19.5883 6.32161 19.7211 5.37536 19.4677C4.42912 19.2144 3.62229 18.5954 3.13237 17.7472C2.64245 16.8989 2.50958 15.8907 2.76297 14.9445C3.01637 13.9983 3.63528 13.1914 4.48355 12.7015L5.2363 12.2656C4.41331 12.2925 3.60493 12.0437 2.93949 11.5587C2.27406 11.0737 1.78973 10.3803 1.56339 9.58855C1.33705 8.79685 1.38169 7.95222 1.69022 7.18878C1.99874 6.42534 2.55347 5.78685 3.26632 5.37469L10.4169 1.24527Z" stroke="black" stroke-width="1.5" stroke-linejoin="round"/>
</svg>
