<svg width="16" height="12" viewBox="0 0 16 12" fill="none" xmlns="http://www.w3.org/2000/svg">
<path d="M6.12036 8.73151C7.39593 7.65262 9.26471 7.65262 10.5403 8.73151C10.6041 8.78943 10.6419 8.87091 10.6438 8.95709C10.6456 9.04355 10.6108 9.12696 10.5491 9.18756L8.552 11.2042C8.49347 11.2633 8.4135 11.296 8.33032 11.296C8.24714 11.296 8.16717 11.2633 8.10864 11.2042L6.1106 9.18756C6.04917 9.12695 6.01502 9.04339 6.01685 8.95709C6.01877 8.8709 6.05648 8.78939 6.12036 8.73151ZM1.45532 6.04205C4.20345 3.48574 8.45907 3.48587 11.2073 6.04205C11.2693 6.102 11.305 6.1843 11.3059 6.27057C11.3068 6.35683 11.273 6.43984 11.2122 6.50104L10.0579 7.66803C9.93887 7.78709 9.74631 7.78887 9.62427 7.67291C8.72184 6.85586 7.54769 6.40331 6.33032 6.40338C5.11366 6.40389 3.94019 6.85627 3.03833 7.67291C2.91638 7.78878 2.72473 7.78682 2.60571 7.66803L1.45142 6.50104C1.39048 6.43993 1.35587 6.35686 1.35669 6.27057C1.35752 6.18431 1.39327 6.10198 1.45532 6.04205ZM0.790283 3.36041C5.00539 -0.679018 11.6553 -0.679096 15.8704 3.36041C15.9313 3.42041 15.9656 3.50246 15.9661 3.58795C15.9665 3.67348 15.9326 3.75578 15.8723 3.81647L14.717 4.98346C14.598 5.10313 14.4044 5.10419 14.2834 4.98639C12.6775 3.45959 10.5462 2.60856 8.33032 2.60846C6.11422 2.60846 3.98237 3.4595 2.37622 4.98639C2.25546 5.10409 2.06258 5.10294 1.9436 4.98346L0.787354 3.81647C0.727137 3.75575 0.693095 3.67346 0.693604 3.58795C0.694167 3.50237 0.729225 3.42038 0.790283 3.36041Z" fill="black"/>
</svg>
