<svg width="16" height="12" viewBox="0 0 16 12" fill="none" xmlns="http://www.w3.org/2000/svg">
<path d="M6.12085 8.73096C7.39638 7.65224 9.26428 7.65221 10.5398 8.73096C10.604 8.78899 10.6415 8.87101 10.6433 8.95752C10.6451 9.04394 10.6112 9.1274 10.5496 9.18799L8.55151 11.2036C8.49298 11.2627 8.41304 11.2964 8.32983 11.2964C8.2467 11.2963 8.1666 11.2627 8.10815 11.2036L6.11108 9.18799C6.0494 9.12736 6.01553 9.04399 6.01733 8.95752C6.01916 8.87101 6.05663 8.78894 6.12085 8.73096ZM3.45483 6.04248C6.20303 3.4861 10.4596 3.4861 13.2078 6.04248C13.2696 6.1024 13.3055 6.18488 13.3064 6.271C13.3071 6.35709 13.2733 6.44038 13.2126 6.50146L12.0574 7.66748C11.9385 7.7865 11.7468 7.78906 11.6248 7.67334C10.7223 6.85613 9.54732 6.40373 8.32983 6.40381C7.11336 6.40442 5.94057 6.85683 5.03882 7.67334C4.91676 7.78932 4.72421 7.78661 4.60522 7.66748L3.45093 6.50146C3.39009 6.44045 3.35647 6.35714 3.35718 6.271C3.35799 6.18492 3.39305 6.10239 3.45483 6.04248ZM0.789795 3.35986C5.00481 -0.679449 11.6548 -0.679376 15.8699 3.35986C15.9308 3.41979 15.965 3.50196 15.9656 3.5874C15.9661 3.67284 15.9329 3.75523 15.8728 3.81592L14.7166 4.98291C14.5975 5.1026 14.4039 5.10461 14.283 4.98682C12.677 3.46002 10.5457 2.60801 8.32983 2.60791C6.11388 2.60802 3.98275 3.46002 2.37671 4.98682C2.25584 5.10468 2.06208 5.10275 1.94312 4.98291L0.786865 3.81592C0.726755 3.75518 0.69353 3.67287 0.694092 3.5874C0.694736 3.50193 0.728809 3.41976 0.789795 3.35986Z" fill="black"/>
</svg>
